<svg xmlns="http://www.w3.org/2000/svg" xmlns:xlink="http://www.w3.org/1999/xlink"><symbol id="icon-add"    viewBox="0 0 20 20" version="1.1" xmlns="http://www.w3.org/2000/svg" xmlns:xlink="http://www.w3.org/1999/xlink">    <title>add</title>    <g id="add" stroke="none" stroke-width="1" fill="none" fill-rule="evenodd">        <path d="M11,0 L11,9 L20,9 L20,11 L11,11 L11,20 L9,20 L9,11 L0,11 L0,9 L9,9 L9,0 L11,0 Z" id="Rectangle-2" fill="currentColor"></path>    </g></symbol><symbol id="icon-arrow"    viewBox="0 0 13 24" version="1.1" xmlns="http://www.w3.org/2000/svg" xmlns:xlink="http://www.w3.org/1999/xlink">    <g id="arrow" stroke="none" stroke-width="1" fill="none" fill-rule="evenodd">        <g id="next" fill="currentColor" fill-rule="nonzero">            <path d="M12.692536,11.3414531 L1.61840647,0.27140625 C1.25557554,-0.091078125 0.668143885,-0.09046875 0.305920863,0.27328125 C-0.0560215827,0.636984375 -0.0550863309,1.22615625 0.307791367,1.58892188 L10.7227554,12.0000937 L0.307417266,22.4112187 C-0.0554136691,22.7740312 -0.0563489209,23.3628281 0.305546763,23.7265781 C0.487125899,23.9089219 0.725007194,24.0000937 0.962888489,24.0000937 C1.20016187,24.0000937 1.43710791,23.9095312 1.61835971,23.7284531 L12.692536,12.6586875 C12.8672878,12.4844062 12.9653489,12.2472187 12.9653489,12.0000937 C12.9653489,11.7529687 12.8670072,11.5160625 12.692536,11.3414531 Z" id="Path"></path>        </g>    </g></symbol><symbol id="icon-basket"    viewBox="0 0 24 21" version="1.1" xmlns="http://www.w3.org/2000/svg" xmlns:xlink="http://www.w3.org/1999/xlink">    <g id="basket" stroke="none" stroke-width="1" fill="none" fill-rule="evenodd">        <g id="cart" fill="currentColor" fill-rule="nonzero">            <path d="M23.6247656,3.31098409 C23.3028281,2.90539773 22.8243281,2.67282273 22.3120781,2.67282273 L4.01892187,2.67282273 L3.8555625,1.48078636 C3.739875,0.636681818 3.021375,9.54545455e-05 2.18423437,9.54545455e-05 L0.75,9.54545455e-05 C0.3358125,9.54545455e-05 -2.66453526e-15,0.342013636 -2.66453526e-15,0.763731818 C-2.66453526e-15,1.18545 0.3358125,1.52736818 0.75,1.52736818 L2.18423437,1.52736818 C2.27723437,1.52736818 2.35710937,1.5981 2.36990625,1.69188409 L4.39439062,16.4648591 C4.51007812,17.3090114 5.22857812,17.94555 6.06571875,17.94555 L6.87895312,17.94555 C6.79570312,18.1845682 6.74995312,18.4414841 6.74995312,18.7091864 C6.74995312,19.9723841 7.7593125,21.0000955 8.99995312,21.0000955 C10.2405937,21.0000955 11.2499531,19.9723841 11.2499531,18.7091864 C11.2499531,18.4414841 11.2042031,18.1845682 11.1209531,17.94555 L15.1289531,17.94555 C15.0457031,18.1845682 14.9999531,18.4414841 14.9999531,18.7091864 C14.9999531,19.9723841 16.0093125,21.0000955 17.2499531,21.0000955 C18.4905937,21.0000955 19.4999531,19.9723841 19.4999531,18.7091864 C19.4999531,18.4414841 19.4542031,18.1845682 19.3709531,17.94555 L21,17.94555 C21.4141875,17.94555 21.75,17.6036318 21.75,17.1819136 C21.75,16.7601955 21.4141875,16.4182773 21,16.4182773 L6.06576562,16.4182773 C5.97276562,16.4182773 5.89289062,16.3475455 5.88009375,16.2537614 L5.69334375,14.8910045 L20.46375,14.8910045 C21.2539687,14.8910045 21.9479531,14.3199477 22.1139844,13.5327818 L23.9622187,4.75110682 C24.0696094,4.24133182 23.9466094,3.71642727 23.6247656,3.31098409 L23.6247656,3.31098409 Z M9.75,18.7091864 C9.75,19.1302364 9.41353125,19.4728227 9,19.4728227 C8.58646875,19.4728227 8.25,19.1302364 8.25,18.7091864 C8.25,18.2881364 8.58646875,17.94555 9,17.94555 C9.41353125,17.94555 9.75,18.2880886 9.75,18.7091864 Z M18,18.7091864 C18,19.1302364 17.6635313,19.4728227 17.25,19.4728227 C16.8364688,19.4728227 16.5,19.1302364 16.5,18.7091864 C16.5,18.2881364 16.8364688,17.94555 17.25,17.94555 C17.6635313,17.94555 18,18.2880886 18,18.7091864 Z M22.4955469,4.43095227 L20.6473594,13.2124364 C20.6288906,13.3000636 20.5516406,13.3636841 20.46375,13.3636841 L5.484,13.3636841 L4.22821875,4.20004773 L22.3120313,4.20004773 C22.3862344,4.20004773 22.4324531,4.23861136 22.4581406,4.27097045 C22.4837813,4.30328182 22.5110625,4.35726136 22.4955469,4.43095227 L22.4955469,4.43095227 Z" id="Shape"></path>        </g>    </g></symbol><symbol id="icon-card-amex"    viewBox="0 0 52 31" version="1.1" xmlns="http://www.w3.org/2000/svg" xmlns:xlink="http://www.w3.org/1999/xlink">    <g id="card-amex" stroke="none" stroke-width="1" fill="none" fill-rule="evenodd">        <g id="AmericanExpress-dark">            <rect id="Rectangle" fill="#0072CE" x="0" y="0" width="52" height="31" rx="4"></rect>            <path d="M43.8918279,17.9105513 L42.0546466,17.9105513 C41.871221,17.9105513 41.7493613,17.9173556 41.6467092,17.9860293 C41.5403681,18.0536948 41.499409,18.1541222 41.499409,18.2866812 C41.499409,18.4443156 41.5892138,18.5515473 41.7198504,18.5979177 C41.8261915,18.6345857 41.940419,18.6452962 42.1083259,18.6452962 L42.6546593,18.659787 C43.2059536,18.6732697 43.5739496,18.7671447 43.7983343,18.9960988 C43.8391662,19.0279785 43.8637162,19.0637644 43.8918279,19.0995503 L43.8918279,17.9105513 Z M43.8918279,20.6654354 C43.6469636,21.0201442 43.1698282,21.1999557 42.5238955,21.1999557 L40.5771931,21.1999557 L40.5771931,20.3039222 L42.5160089,20.3039222 C42.7083387,20.3039222 42.8429186,20.2788469 42.9239464,20.2004707 C42.994162,20.1358293 43.0431348,20.0419543 43.0431348,19.9279183 C43.0431348,19.8061958 42.994162,19.7095487 42.9200031,19.6515856 C42.8468619,19.5878262 42.7403936,19.5588447 42.5648546,19.5588447 C41.6183431,19.526965 40.4375251,19.5878262 40.4375251,18.2655121 C40.4375251,17.6594199 40.8260006,17.0214481 41.883814,17.0214481 L43.8917007,17.0214481 L43.8917007,16.190056 L42.0261533,16.190056 C41.4631564,16.190056 41.0542013,16.3236231 40.764562,16.5312821 L40.764562,16.190056 L38.0051648,16.190056 C37.5639004,16.190056 37.0459331,16.2984217 36.8009416,16.5312821 L36.8009416,16.190056 L31.8733831,16.190056 L31.8733831,16.5312821 C31.4812187,16.2510432 30.8195129,16.190056 30.5141005,16.190056 L27.26383,16.190056 L27.26383,16.5312821 C26.9535839,16.2336543 26.2636392,16.190056 25.8431087,16.190056 L22.2055076,16.190056 L21.3730965,17.0824353 L20.5934742,16.190056 L15.159651,16.190056 L15.159651,22.0206373 L20.4912037,22.0206373 L21.3489281,21.1141452 L22.1569164,22.0206373 L25.4433122,22.0235354 L25.4433122,20.6519527 L25.7664058,20.6519527 C26.2024549,20.658631 26.7167334,20.6412421 27.1704636,20.4469398 L27.1704636,22.0205112 L29.8811423,22.0205112 L29.8811423,20.5008706 L30.0119062,20.5008706 C30.1787955,20.5008706 30.1952046,20.507675 30.1952046,20.6728698 L30.1952046,22.0203852 L38.4297657,22.0203852 C38.9525667,22.0203852 39.4990273,21.8878262 39.8016414,21.6472795 L39.8016414,22.0203852 L42.4136112,22.0203852 C42.9571462,22.0203852 43.4879609,21.9449072 43.8918279,21.751613 L43.8918279,20.6654354 L43.8918279,20.6654354 Z M39.8708393,18.9960988 C40.0671123,19.1973315 40.1723085,19.451361 40.1723085,19.8814218 C40.1723085,20.7803535 39.6053684,21.1999557 38.5887684,21.1999557 L36.6254026,21.1999557 L36.6254026,20.3039222 L38.5808819,20.3039222 C38.7720668,20.3039222 38.9076643,20.2788469 38.9926354,20.2004707 C39.0619606,20.1358293 39.1116967,20.0419543 39.1116967,19.9279183 C39.1116967,19.8061958 39.0578901,19.7095487 38.9886921,19.6515856 C38.9116076,19.5878262 38.8052666,19.5588447 38.6297276,19.5588447 C37.6870321,19.526965 36.5064686,19.5878262 36.5064686,18.2655121 C36.5064686,17.6594199 36.8908736,17.0214481 37.9476694,17.0214481 L39.9685306,17.0214481 L39.9685306,17.9108033 L38.1193924,17.9108033 C37.936094,17.9108033 37.8169055,17.9176076 37.7155254,17.9862813 C37.6051139,18.0539469 37.5641548,18.1543742 37.5641548,18.2869332 C37.5641548,18.4445676 37.6579028,18.5517993 37.7847234,18.5981697 C37.8910644,18.6348377 38.005292,18.6455482 38.177015,18.6455482 L38.7196595,18.660039 C39.2668833,18.6732697 39.6425114,18.7670187 39.8708393,18.9960988 L39.8708393,18.9960988 Z M30.774865,18.7380371 C30.6400306,18.8172953 30.4732686,18.8240997 30.2771228,18.8240997 L29.0525473,18.8240997 L29.0525473,17.8856019 L30.2937863,17.8856019 C30.4732686,17.8856019 30.652878,17.8893821 30.774865,17.9610799 C30.9055016,18.0287455 30.9836037,18.1581544 30.9836037,18.3369579 C30.9836037,18.5157614 30.9055016,18.659787 30.774865,18.7380371 L30.774865,18.7380371 Z M31.3836546,19.2580667 C31.6080393,19.3400971 31.7914649,19.4871469 31.8774536,19.6088693 C32.0197928,19.8128742 32.0403996,20.0032703 32.04447,20.3715878 L32.04447,21.1999557 L31.0324494,21.1999557 L31.0324494,20.677154 C31.0324494,20.4257707 31.0568722,20.0535469 30.8695034,19.8592446 C30.7222032,19.7095487 30.4976914,19.6737628 30.1299498,19.6737628 L29.0526745,19.6737628 L29.0526745,21.1999557 L28.0397634,21.1999557 L28.0397634,17.0213221 L30.3670547,17.0213221 C30.8773899,17.0213221 31.2490747,17.0436253 31.5799276,17.2185225 C31.8980603,17.4089186 32.0981494,17.6697525 32.0981494,18.1464358 C32.0980222,18.8133891 31.6489984,19.1537332 31.3836546,19.2580667 L31.3836546,19.2580667 Z M32.6570758,17.0213221 L36.0214466,17.0213221 L36.0214466,17.8854759 L33.6609555,17.8854759 L33.6609555,18.6451702 L35.963824,18.6451702 L35.963824,19.4977314 L33.6609555,19.4977314 L33.6609555,20.3291235 L36.0214466,20.3329037 L36.0214466,21.1999557 L32.6570758,21.1999557 L32.6570758,17.0213221 L32.6570758,17.0213221 Z M25.8559562,18.9497284 L24.5532785,18.9497284 L24.5532785,17.8856019 L25.8676588,17.8856019 C26.2315842,17.8856019 26.4842078,18.0325257 26.4842078,18.3979451 C26.4842078,18.7593323 26.2432868,18.9497284 25.8559562,18.9497284 L25.8559562,18.9497284 Z M23.5492716,20.8199196 L22.0016025,19.1178213 L23.5492716,17.4697799 L23.5492716,20.8199196 L23.5492716,20.8199196 Z M19.5524515,20.3291235 L17.074044,20.3291235 L17.074044,19.4977314 L19.2871077,19.4977314 L19.2871077,18.6451702 L17.074044,18.6451702 L17.074044,17.8854759 L19.6012971,17.8854759 L20.7038857,19.1032045 L19.5524515,20.3291235 L19.5524515,20.3291235 Z M27.566444,18.3979451 C27.566444,19.5587187 26.6921834,19.7983834 25.8110538,19.7983834 L24.5532785,19.7983834 L24.5532785,21.1999557 L22.5939831,21.1999557 L21.3527441,19.8166544 L20.0627867,21.1999557 L16.0699099,21.1999557 L16.0699099,17.0213221 L20.1242254,17.0213221 L21.3644467,18.3910147 L22.6466448,17.0213221 L25.8676588,17.0213221 C26.6676334,17.0213221 27.566444,17.2406997 27.566444,18.3979451 L27.566444,18.3979451 Z" id="EXPRESS" fill="#FFFFFF"></path>            <path d="M11.2605222,12.2058507 L10.5705775,10.5404203 L9.88457604,12.2058507 L11.2605222,12.2058507 Z M26.4599122,11.5426775 C26.321389,11.6259679 26.1575526,11.6287401 25.9612796,11.6287401 L24.7367041,11.6287401 L24.7367041,10.7008269 L25.9779431,10.7008269 C26.1536093,10.7008269 26.3369076,10.7086393 26.4559689,10.7761788 C26.5867328,10.8370401 26.6676334,10.9665749 26.6676334,11.1455044 C26.6676334,11.3280881 26.590676,11.4750119 26.4599122,11.5426775 L26.4599122,11.5426775 Z M35.1959044,12.2058507 L34.4983275,10.5404203 L33.8045668,12.2058507 L35.1959044,12.2058507 L35.1959044,12.2058507 Z M18.9114796,14.0085023 L17.878089,14.0085023 L17.874273,10.7366127 L16.4125926,14.0085023 L15.5275197,14.0085023 L14.0620233,10.7337146 L14.0620233,14.0085023 L12.0117783,14.0085023 L11.6244476,13.0766829 L9.52561145,13.0766829 L9.13433751,14.0085023 L8.03950824,14.0085023 L9.84463455,9.83087671 L11.3423132,9.83087671 L13.0567443,13.7862265 L13.0567443,9.83087671 L14.7019775,9.83087671 L16.0211914,12.664893 L17.2330467,9.83087671 L18.9113524,9.83087671 L18.9113524,14.0085023 L18.9114796,14.0085023 Z M23.0301594,14.0085023 L19.6627358,14.0085023 L19.6627358,9.83087671 L23.0301594,9.83087671 L23.0301594,10.7008269 L20.6708132,10.7008269 L20.6708132,11.4538428 L22.9735545,11.4538428 L22.9735545,12.3101842 L20.6708132,12.3101842 L20.6708132,13.1444745 L23.0301594,13.1444745 L23.0301594,14.0085023 L23.0301594,14.0085023 Z M27.7781085,10.9559904 C27.7781085,11.6220617 27.3293392,11.966186 27.0678114,12.0695114 C27.2883801,12.1526759 27.4767665,12.2995996 27.566444,12.4213221 C27.7087833,12.6291071 27.7333333,12.814715 27.7333333,13.1878208 L27.7333333,14.0085023 L26.7166062,14.0085023 L26.7127901,13.4816683 C26.7127901,13.230285 26.7370857,12.8687718 26.5536602,12.6677912 C26.40636,12.5208674 26.1818482,12.4889877 25.8189403,12.4889877 L24.7368313,12.4889877 L24.7368313,14.0085023 L23.7288811,14.0085023 L23.7288811,9.83087671 L26.0473955,9.83087671 C26.5625643,9.83087671 26.9421357,9.84435942 27.2680277,10.0309753 C27.5869236,10.2175912 27.7781085,10.4900177 27.7781085,10.9559904 L27.7781085,10.9559904 Z M29.3912867,14.0085023 L28.3627298,14.0085023 L28.3627298,9.83087671 L29.3912867,9.83087671 L29.3912867,14.0085023 L29.3912867,14.0085023 Z M41.32387,14.0085023 L39.8953894,14.0085023 L37.9846852,10.872952 L37.9846852,14.0085023 L35.931769,14.0085023 L35.5394775,13.0766829 L33.445475,13.0766829 L33.064886,14.0085023 L31.8853401,14.0085023 C31.3953572,14.0085023 30.7749922,13.9011446 30.4236597,13.5464358 C30.0694016,13.191727 29.8850856,12.7112635 29.8850856,11.9515692 C29.8850856,11.3319943 29.9952427,10.7655943 30.4284934,10.3180185 C30.7543854,9.98460486 31.2647206,9.83087671 31.9593718,9.83087671 L32.935267,9.83087671 L32.935267,10.7260282 L31.9798513,10.7260282 C31.6119826,10.7260282 31.4042614,10.7802111 31.2041724,10.9735053 C31.0323222,11.1494106 30.9144058,11.4819423 30.9144058,11.9198155 C30.9144058,12.3673912 31.0042105,12.6900944 31.1915793,12.9009035 C31.346766,13.0662243 31.6287733,13.116375 31.894117,13.116375 L32.3468296,13.116375 L33.7675509,9.83100272 L35.2779498,9.83100272 L36.9846216,13.7824463 L36.9846216,9.83100272 L38.5194433,9.83100272 L40.2913698,12.740497 L40.2913698,9.83100272 L41.32387,9.83100272 L41.32387,14.0085023 L41.32387,14.0085023 Z M8.02780563,14.8290578 L9.75012332,14.8290578 L10.1384716,13.9011446 L11.0078986,13.9011446 L11.3952293,14.8290578 L14.7840229,14.8290578 L14.7840229,14.1196402 L15.0865097,14.832082 L16.845716,14.832082 L17.1482029,14.1090556 L17.1482029,14.8290578 L25.5700056,14.8290578 L25.5660624,13.305889 L25.7290084,13.305889 C25.8431087,13.3097952 25.8764357,13.3202538 25.8764357,13.5068697 L25.8764357,14.8290578 L30.2322204,14.8290578 L30.2322204,14.474475 C30.5835529,14.6609649 31.1300135,14.8290578 31.8490875,14.8290578 L33.6815623,14.8290578 L34.0737266,13.9011446 L34.9431536,13.9011446 L35.3266682,14.8290578 L38.8579283,14.8290578 L38.8579283,13.9476411 L39.3926863,14.8290578 L42.2224263,14.8290578 L42.2224263,9.00250877 L39.4219428,9.00250877 L39.4219428,9.69063127 L39.0297785,9.00250877 L36.1561537,9.00250877 L36.1561537,9.69063127 L35.7960443,9.00250877 L31.9144694,9.00250877 C31.2647206,9.00250877 30.6935828,9.09235154 30.2322204,9.34272682 L30.2322204,9.00250877 L27.5535966,9.00250877 L27.5535966,9.34272682 C27.260014,9.08466513 26.8599631,9.00250877 26.415137,9.00250877 L16.6290907,9.00250877 L15.972473,10.5074066 L15.2981742,9.00250877 L12.2158106,9.00250877 L12.2158106,9.69063127 L11.8771984,9.00250877 L9.24843788,9.00250877 L8.02767843,11.7727657 L8.02767843,14.8290578 L8.02780563,14.8290578 Z" id="AMERICAN" fill="#FFFFFF"></path>        </g>    </g></symbol><symbol id="icon-card-mastercard"    viewBox="0 0 52 31" version="1.1" xmlns="http://www.w3.org/2000/svg" xmlns:xlink="http://www.w3.org/1999/xlink">    <g id="card-mastercard" stroke="none" stroke-width="1" fill="none" fill-rule="evenodd">        <g id="MasterCard-dark">            <rect id="Rectangle" fill="#000066" x="0" y="0" width="52" height="31" rx="4"></rect>            <path d="M29.1868829,15.7507911 C29.1868829,21.3195565 24.6438245,25.8333333 19.039292,25.8333333 C13.4345991,25.8333333 8.89122,21.3195565 8.89122,15.7507911 C8.89122,10.1821851 13.4345991,5.66793021 19.039292,5.66793021 C24.6438245,5.66793021 29.1868829,10.1821851 29.1868829,15.7507911" id="Fill-333" fill="#CC0000"></path>            <path d="M32.6633352,5.66793021 C30.0406808,5.66793021 27.6518427,6.65631476 25.8505919,8.2777562 C25.4841516,8.60822687 25.1420872,8.96514794 24.826323,9.34517327 L26.8766249,9.34517327 C27.156627,9.68392961 27.4146587,10.040054 27.650239,10.4130684 L24.0525486,10.4130684 C23.8373351,10.7558082 23.6416864,11.1119326 23.4678477,11.4809635 L28.2346191,11.4809635 C28.3975527,11.8265714 28.5409215,12.1825364 28.6644047,12.5483805 L23.0380621,12.5483805 C22.9209937,12.8960599 22.8222071,13.2523436 22.7433062,13.6156383 L28.9588399,13.6156383 C29.1076612,14.3039861 29.1868829,15.0181469 29.1868829,15.7507911 C29.1868829,16.8701529 29.0032618,17.9476084 28.6644047,18.953839 L23.0380621,18.953839 C23.1615453,19.3193645 23.3049141,19.6758075 23.467527,20.0218935 L28.2346191,20.0218935 C28.0604597,20.3899683 27.8657732,20.7464114 27.6492768,21.0896292 L24.0525486,21.0896292 C24.2871666,21.4615282 24.5456795,21.8181306 24.826323,22.1564089 L26.8759834,22.1564089 C26.5608608,22.536753 26.2184756,22.893674 25.8509127,23.2241447 C27.652003,24.8455861 30.0406808,25.8333333 32.6633352,25.8333333 C38.2677074,25.8333333 42.8109261,21.3195565 42.8109261,15.7507911 C42.8109261,10.1826631 38.2677074,5.66793021 32.6633352,5.66793021" id="Fill-334" fill="#FF9900"></path>            <path d="M16.6695376,16.854697 C16.5539124,16.8416311 16.5029155,16.8374883 16.4235334,16.8374883 C15.7990614,16.8374883 15.4832972,17.0503662 15.4832972,17.4708639 C15.4832972,17.729791 15.6374106,17.894389 15.8779623,17.894389 C16.3268317,17.894389 16.6502934,17.4699078 16.6695376,16.854697 L16.6695376,16.854697 Z M17.4708953,18.7079778 L16.5577612,18.7079778 L16.5787694,18.2769637 C16.300371,18.6173135 15.9287989,18.77984 15.4241215,18.77984 C14.8272327,18.77984 14.4178138,18.3167987 14.4178138,17.6439068 C14.4178138,16.630984 15.1296863,16.0403115 16.351849,16.0403115 C16.4770963,16.0403115 16.6371433,16.0517839 16.8010391,16.0723388 C16.8350371,15.9349879 16.8440177,15.8766695 16.8440177,15.8025765 C16.8440177,15.5272374 16.6522178,15.4239853 16.1375977,15.4239853 C15.5986017,15.4185677 15.1540622,15.5519351 14.9714033,15.6115282 C14.9829498,15.5423747 15.1242338,14.6760444 15.1242338,14.6760444 C15.6730123,14.5157486 16.0351227,14.4558369 16.4426172,14.4558369 C17.388787,14.4558369 17.8899362,14.8777685 17.8888137,15.6754234 C17.8907381,15.8894167 17.8549761,16.1524867 17.7996492,16.4995287 C17.70407,17.101833 17.4987993,18.3936004 17.4708953,18.7079778 L17.4708953,18.7079778 Z" id="Fill-336" fill="#000066"></path>            <polyline id="Fill-337" fill="#000066" points="13.9567565 18.7079778 12.8548696 18.7079778 13.4863979 14.7767471 12.0769256 18.7079778 11.3262441 18.7079778 11.2333912 14.798736 10.5701101 18.7079778 9.53894539 18.7079778 10.4002806 13.5936494 11.9845538 13.5936494 12.0802933 16.4563476 13.0468298 13.5936494 14.8087904 13.5936494 13.9567565 18.7079778"></polyline>            <path d="M34.0245368,16.854697 C33.9089116,16.8416311 33.8585561,16.8374883 33.7793345,16.8374883 C33.1543813,16.8374883 32.8389379,17.0503662 32.8389379,17.4708639 C32.8389379,17.729791 32.9924099,17.894389 33.233603,17.894389 C33.6821516,17.894389 34.0057738,17.4699078 34.0245368,16.854697 L34.0245368,16.854697 Z M34.8263756,18.7079778 L33.9135623,18.7079778 L33.9342497,18.2769637 C33.6558513,18.6173135 33.2844396,18.77984 32.7800829,18.77984 C32.1823923,18.77984 31.7734545,18.3167987 31.7734545,17.6439068 C31.7734545,16.630984 32.4856477,16.0403115 33.7074897,16.0403115 C33.8325766,16.0403115 33.9923029,16.0517839 34.1563591,16.0723388 C34.1905174,15.9349879 34.1993376,15.8766695 34.1993376,15.8025765 C34.1993376,15.5272374 34.0075378,15.4239853 33.4929176,15.4239853 C32.9539216,15.4185677 32.5095425,15.5519351 32.3262422,15.6115282 C32.3384301,15.5423747 32.4800349,14.6760444 32.4800349,14.6760444 C33.0284926,14.5157486 33.3909238,14.4558369 33.7977768,14.4558369 C34.744588,14.4558369 35.2450958,14.8777685 35.2441336,15.6754234 C35.246058,15.8894167 35.2106167,16.1524867 35.1549691,16.4995287 C35.0597107,17.101833 34.8539588,18.3936004 34.8263756,18.7079778 L34.8263756,18.7079778 Z" id="Fill-338" fill="#000066"></path>            <path d="M22.366923,18.6447199 C22.0652713,18.739049 21.8303325,18.77984 21.5753478,18.77984 C21.0122966,18.77984 20.7048716,18.4582924 20.7048716,17.8660265 C20.6970135,17.6821484 20.7858573,17.1985522 20.8557776,16.7574997 C20.919604,16.3688701 21.3336736,13.9191805 21.3336736,13.9191805 L22.4285043,13.9191805 L22.3006912,14.5487319 L22.9622082,14.5487319 L22.8129058,15.5484296 L22.1491436,15.5484296 C22.021972,16.3392329 21.8405961,17.32459 21.8385113,17.4552486 C21.8385113,17.6697199 21.9536553,17.7634117 22.2158566,17.7634117 C22.3414246,17.7634117 22.4386074,17.7506645 22.5128577,17.7242141 L22.366923,18.6447199" id="Fill-339" fill="#000066"></path>            <path d="M25.7243825,18.6110992 C25.3481597,18.7253458 24.9855682,18.7811147 24.600846,18.77984 C23.3748344,18.7782466 22.7357689,18.142481 22.7357689,16.9243285 C22.7357689,15.5026991 23.5486731,14.4558369 24.6524844,14.4558369 C25.5551945,14.4558369 26.1320374,15.0418885 26.1320374,15.9606416 C26.1320374,16.2660959 26.0925869,16.5637426 25.9968473,16.9837622 L23.8161665,16.9837622 C23.7425577,17.5871819 24.1309684,17.8384607 24.7684303,17.8384607 C25.159888,17.8384607 25.5136593,17.7581535 25.9067207,17.5769841 L25.7243825,18.6110992 L25.7243825,18.6110992 Z M25.108891,16.1454757 C25.1151454,16.0586355 25.2248369,15.4029524 24.5989216,15.4029524 C24.2506028,15.4029524 24.0009102,15.6671377 23.8997181,16.1454757 L25.108891,16.1454757 L25.108891,16.1454757 Z" id="Fill-340" fill="#000066"></path>            <path d="M18.1316105,15.863763 C18.1316105,16.3894249 18.3881989,16.7522415 18.9703338,17.0248719 C19.4163166,17.2334476 19.4857558,17.2951121 19.4857558,17.4839297 C19.4857558,17.7428568 19.2888242,17.8604496 18.853105,17.8604496 C18.5241907,17.8604496 18.2185298,17.8091422 17.8658811,17.6958516 C17.8658811,17.6958516 17.7213897,18.6130113 17.7144939,18.6568297 C17.964828,18.7106866 18.1880599,18.7608786 18.860963,18.77984 C20.0233086,18.77984 20.5602198,18.3400623 20.5602198,17.3896006 C20.5602198,16.8182082 20.335705,16.482798 19.7837191,16.2304038 C19.3220204,16.019916 19.2686179,15.9727514 19.2686179,15.7786756 C19.2686179,15.5538472 19.4519182,15.4389632 19.8077743,15.4389632 C20.0241104,15.4389632 20.3193475,15.4619081 20.5995099,15.501265 L20.7561892,14.5366221 C20.4710554,14.491529 20.0383831,14.4558369 19.7866058,14.4558369 C18.5543399,14.4558369 18.1276013,15.0952673 18.1316105,15.863763" id="Fill-341" fill="#000066"></path>            <path d="M31.0824298,14.5656219 C31.3884115,14.5656219 31.6741869,14.6446545 32.0669275,14.8417578 L32.2473412,13.731797 C32.0853698,13.6686984 31.5175076,13.2988708 31.0364043,13.2988708 C30.299354,13.2988708 29.6755234,13.6628028 29.2375591,14.2620797 C28.5980124,14.0517512 28.3348489,14.4768697 28.0128305,14.9007135 L27.726574,14.9669988 C27.7482237,14.8275765 27.7679489,14.6891103 27.7616946,14.5487319 L26.7494533,14.5487319 C26.611537,15.8363566 26.3666554,17.1400745 26.1750159,18.4281772 L26.1248208,18.7079778 L27.2270284,18.7079778 C27.4109703,17.5202592 27.5115209,16.7600492 27.5727813,16.2450631 L27.9878131,16.0165698 C28.0501962,15.7869612 28.2437601,15.7098408 28.633133,15.7192418 C28.5822964,15.9904381 28.5547132,16.2761343 28.5547132,16.5717096 C28.5547132,17.9326305 29.29465,18.77984 30.4800885,18.77984 C30.7855891,18.77984 31.0479507,18.7400051 31.4541623,18.6300606 L31.6472451,17.4646496 C31.2819273,17.6429508 30.9828414,17.7269229 30.7116596,17.7269229 C30.0711507,17.7269229 29.6835418,17.2570299 29.6835418,16.4808859 C29.6835418,15.3545131 30.2595828,14.5656219 31.0824298,14.5656219" id="Fill-342" fill="#000066"></path>            <path d="M40.4097396,13.5936494 L40.164858,15.071207 C39.8641685,14.6774785 39.5405463,14.3922603 39.1133266,14.3922603 C38.5574919,14.3922603 38.0515317,14.8110052 37.7202119,15.4276501 C37.2588338,15.3325242 36.7820605,15.1707944 36.7820605,15.1707944 L36.7817397,15.1747779 C36.8184639,14.830126 36.8340196,14.6204348 36.8303311,14.5487319 L35.8182502,14.5487319 C35.680815,15.8363566 35.4356127,17.1400745 35.2441336,18.4281772 L35.1934574,18.7079778 L36.2959858,18.7079778 C36.444807,17.748115 36.5585078,16.9501415 36.6423801,16.3182 C37.0192444,15.9797624 37.2078369,15.6854618 37.5877481,15.7045826 C37.4192016,16.1096243 37.3208961,16.5758524 37.3208961,17.0541904 C37.3208961,18.0935637 37.849789,18.77984 38.6509863,18.77984 C39.0547924,18.77984 39.3646229,18.6413738 39.6667558,18.3207822 L39.6147966,18.7076591 L40.6571871,18.7076591 L41.4963916,13.5936494 L40.4097396,13.5936494 L40.4097396,13.5936494 Z M39.0320202,17.747159 C38.6570803,17.747159 38.4672049,17.4708639 38.4672049,16.9271966 C38.4672049,16.1096243 38.8220988,15.5301055 39.3216443,15.5301055 C39.7002726,15.5301055 39.9055434,15.8162798 39.9055434,16.3446504 C39.9055434,17.1692337 39.5447159,17.747159 39.0320202,17.747159 L39.0320202,17.747159 Z" id="Fill-343" fill="#000066"></path>            <polyline id="Fill-344" fill="#FFFFFF" points="14.2736432 18.4044355 13.172077 18.4044355 13.8034449 14.4732049 12.3942934 18.4044355 11.6432912 18.4044355 11.5505986 14.4959905 10.8871572 18.4044355 9.85599246 18.4044355 10.7173277 13.2905852 12.3016008 13.2905852 12.3458623 16.4563476 13.4148738 13.2905852 15.1258375 13.2905852 14.2736432 18.4044355"></polyline>            <path d="M16.9865846,16.5517921 C16.8711198,16.5384076 16.8201229,16.5347427 16.7407409,16.5347427 C16.1162688,16.5347427 15.8003443,16.747302 15.8003443,17.1674809 C15.8003443,17.4260894 15.9546181,17.5916434 16.1953301,17.5916434 C16.6440391,17.5916434 16.9675009,17.1671623 16.9865846,16.5517921 L16.9865846,16.5517921 Z M17.787782,18.4044355 L16.875129,18.4044355 L16.8959768,17.9737402 C16.6175784,18.3139305 16.2460063,18.4766164 15.741329,18.4766164 C15.1442798,18.4766164 14.7350213,18.0129377 14.7350213,17.3402053 C14.7350213,16.327123 15.4470541,15.7372472 16.6692168,15.7372472 C16.7941433,15.7372472 16.9541903,15.7485604 17.1182466,15.7695932 C17.1522445,15.6319236 17.1612251,15.573446 17.1612251,15.4990343 C17.1612251,15.2238545 16.9694253,15.121399 16.4548051,15.121399 C15.9156487,15.1150255 15.4712696,15.2483928 15.2884504,15.3078266 C15.3001572,15.2389918 15.4412809,14.3726615 15.4412809,14.3726615 C15.9902197,14.2126844 16.3523301,14.1522946 16.7598246,14.1522946 C17.705834,14.1522946 18.2068229,14.5747043 18.2060211,15.3720405 C18.2077851,15.5857151 18.1723439,15.8500598 18.1168566,16.1961457 C18.0211171,16.797972 17.8158463,18.0905362 17.787782,18.4044355 L17.787782,18.4044355 Z" id="Fill-345" fill="#FFFFFF"></path>            <path d="M32.5642279,13.4282547 L32.3838142,14.5380562 C31.9904321,14.3415902 31.7054586,14.2620797 31.3997976,14.2620797 C30.5772714,14.2620797 30.0002682,15.0519269 30.0002682,16.178459 C30.0002682,16.954603 30.3880374,17.4235399 31.0285462,17.4235399 C31.2998885,17.4235399 31.5996158,17.3402053 31.9641318,17.1612667 L31.7705679,18.3266777 C31.3649978,18.4364628 31.1024758,18.4766164 30.7971356,18.4766164 C29.6108952,18.4766164 28.872081,17.6292476 28.872081,16.2686453 C28.872081,14.4403809 29.8934632,13.1626353 31.3534513,13.1626353 C31.8345546,13.1626353 32.4027376,13.3651562 32.5642279,13.4282547" id="Fill-346" fill="#FFFFFF"></path>            <path d="M34.3414235,16.5517921 C34.2266002,16.5384076 34.1754428,16.5347427 34.0962212,16.5347427 C33.4720698,16.5347427 33.155985,16.747302 33.155985,17.1674809 C33.155985,17.4260894 33.3100984,17.5916434 33.55065,17.5916434 C33.9991987,17.5916434 34.3229812,17.1671623 34.3414235,16.5517921 L34.3414235,16.5517921 Z M35.1432623,18.4044355 L34.2306094,18.4044355 L34.2512968,17.9737402 C33.9728984,18.3139305 33.6013263,18.4766164 33.09713,18.4766164 C32.4994394,18.4766164 32.0906619,18.0129377 32.0906619,17.3402053 C32.0906619,16.327123 32.8020533,15.7372472 34.0245368,15.7372472 C34.1494633,15.7372472 34.3091896,15.7485604 34.4730854,15.7695932 C34.5072437,15.6319236 34.5162243,15.573446 34.5162243,15.4990343 C34.5162243,15.2238545 34.3249056,15.121399 33.8099647,15.121399 C33.2712894,15.1150255 32.8270707,15.2483928 32.6439307,15.3078266 C32.6554772,15.2389918 32.7967612,14.3726615 32.7967612,14.3726615 C33.3457,14.2126844 33.7074897,14.1522946 34.1149842,14.1522946 C35.0609936,14.1522946 35.5624636,14.5747043 35.5611807,15.3720405 C35.5634258,15.5857151 35.5276638,15.8500598 35.4721766,16.1961457 C35.3767578,16.797972 35.171487,18.0905362 35.1432623,18.4044355 L35.1432623,18.4044355 Z" id="Fill-347" fill="#FFFFFF"></path>            <path d="M22.6838097,18.341337 C22.3824787,18.4356661 22.1472192,18.4766164 21.8925552,18.4766164 C21.3293436,18.4766164 21.0217583,18.1549095 21.0217583,17.5632809 C21.0140606,17.3787655 21.1030647,16.895966 21.1731454,16.4544355 C21.2364907,16.0654871 21.6507206,13.6161163 21.6507206,13.6161163 L22.7458721,13.6161163 L22.6177382,14.2455084 L23.1799876,14.2455084 L23.0302041,15.2448874 L22.4661907,15.2448874 C22.3390191,16.0364873 22.1576431,17.021207 22.155398,17.1518657 C22.155398,17.3669743 22.2710231,17.4600288 22.5329037,17.4600288 C22.6584716,17.4600288 22.7554941,17.4477596 22.8300651,17.4206718 L22.6838097,18.341337" id="Fill-348" fill="#FFFFFF"></path>            <path d="M26.0419107,18.3083537 C25.6655275,18.4229189 25.3021342,18.4769351 24.917893,18.4766164 C23.6917211,18.4758197 23.0531367,17.8392574 23.0531367,16.6212642 C23.0531367,15.1991568 23.8658805,14.1522946 24.96889,14.1522946 C25.8725623,14.1522946 26.4490844,14.7383463 26.4490844,15.6582147 C26.4490844,15.9630317 26.4089925,16.260519 26.3143755,16.680698 L24.1333739,16.680698 C24.0594444,17.2841177 24.4483362,17.5358745 25.0851566,17.5358745 C25.4769351,17.5358745 25.830546,17.4552486 26.2240885,17.2736012 L26.0419107,18.3083537 L26.0419107,18.3083537 Z M25.4262588,15.8419335 C25.4321925,15.7549339 25.5423651,15.0995695 24.9166101,15.0995695 C24.5679706,15.0995695 24.318278,15.3642328 24.2167652,15.8419335 L25.4262588,15.8419335 L25.4262588,15.8419335 Z" id="Fill-349" fill="#FFFFFF"></path>            <path d="M18.4484972,15.5602208 C18.4484972,16.0868387 18.7054063,16.4488586 19.2877016,16.7218076 C19.7336844,16.930224 19.8028029,16.9918885 19.8028029,17.1808655 C19.8028029,17.4401113 19.6060317,17.5570667 19.1699917,17.5570667 C18.8413982,17.5570667 18.5355768,17.5063966 18.1827678,17.3934247 C18.1827678,17.3934247 18.0384368,18.3099471 18.0317013,18.3531281 C18.281875,18.4076223 18.5052673,18.4573363 19.1778497,18.4766164 C20.340516,18.4766164 20.8774273,18.036998 20.8774273,17.0865363 C20.8774273,16.5148253 20.6525917,16.1795744 20.1007662,15.9278176 C19.638907,15.7166924 19.5858253,15.6700058 19.5858253,15.4756113 C19.5858253,15.2507829 19.7689653,15.1351023 20.1251421,15.1351023 C20.3409971,15.1351023 20.6365549,15.1590032 20.916557,15.1982008 L21.0733967,14.2337172 C20.7881024,14.1889427 20.3557509,14.1522946 20.1038132,14.1522946 C18.8712266,14.1522946 18.4448087,14.7918844 18.4484972,15.5602208" id="Fill-350" fill="#FFFFFF"></path>            <path d="M40.9742341,18.4044355 L39.9321644,18.4044355 L39.9838028,18.0173992 C39.6815096,18.3381502 39.3718394,18.4766164 38.9680334,18.4766164 C38.1674775,18.4766164 37.6377828,17.7911368 37.6377828,16.7506481 C37.6377828,15.3672603 38.4590261,14.2012119 39.4303737,14.2012119 C39.8575934,14.2012119 40.1810552,14.3745736 40.4823862,14.7684615 L40.7267867,13.2905852 L41.8132783,13.2905852 L40.9742341,18.4044355 L40.9742341,18.4044355 Z M39.3489069,17.4434574 C39.8622441,17.4434574 40.2224301,16.8658508 40.2224301,16.0420642 C40.2224301,15.5135342 40.0173197,15.2264039 39.6386914,15.2264039 C39.1389854,15.2264039 38.784252,15.806082 38.784252,16.623973 C38.784252,17.1682776 38.9742878,17.4434574 39.3489069,17.4434574 L39.3489069,17.4434574 Z" id="Fill-351" fill="#FFFFFF"></path>            <path d="M36.135618,14.2455084 C35.9978621,15.5328143 35.7528202,16.8365323 35.5611807,18.1247942 L35.5109856,18.4044355 L36.6128725,18.4044355 C37.0070564,15.8610542 37.1018338,15.3647109 37.7202119,15.426694 C37.8185173,14.906131 38.0018176,14.45026 38.1382906,14.220492 C37.6769126,14.1248882 37.4192016,14.3839746 37.0814671,14.8763345 C37.1084088,14.6632972 37.1570003,14.4566335 37.1478593,14.2455084 L36.135618,14.2455084" id="Fill-352" fill="#FFFFFF"></path>            <path d="M27.0669814,14.2455084 C26.928584,15.5328143 26.6832214,16.8365323 26.4919026,18.1247942 L26.4418679,18.4044355 L27.5440755,18.4044355 C27.9384198,15.8610542 28.0328765,15.3647109 28.6502923,15.426694 C28.7492392,14.906131 28.9328603,14.45026 29.0690126,14.220492 C28.6081156,14.1248882 28.3499235,14.3839746 28.0128305,14.8763345 C28.0394515,14.6632972 28.0883637,14.4566335 28.0787416,14.2455084 L27.0669814,14.2455084" id="Fill-353" fill="#FFFFFF"></path>        </g>    </g></symbol><symbol id="icon-card-paypal"    viewBox="0 0 52 31" version="1.1" xmlns="http://www.w3.org/2000/svg" xmlns:xlink="http://www.w3.org/1999/xlink">    <g id="card-paypal" stroke="none" stroke-width="1" fill="none" fill-rule="evenodd">        <g id="Paypal-dark" transform="translate(26.000000, 15.500000) scale(1, -1) translate(-26.000000, -15.500000) ">            <rect id="Rectangle" fill="#00457C" x="0" y="0" width="52" height="31" rx="4"></rect>            <path d="M40.7816315,19.6367527 L39.7329138,13.007005 C39.7124863,12.8786789 39.8123172,12.7624652 39.9431186,12.7624652 L40.9980964,12.7624652 C41.1727179,12.7624652 41.3216404,12.8888271 41.3486574,13.0603651 L42.3828782,19.5709529 C42.4033057,19.699279 42.3034749,19.8154927 42.172344,19.8154927 L40.9921658,19.8154927 C40.8870634,19.8154927 40.7977758,19.739872 40.7816315,19.6367527" id="Shape" fill="#FFFFFF"></path>            <path d="M27.6301573,17.4668624 L26.4002285,17.4668624 C26.2826061,17.4668624 26.1725615,17.4089192 26.1066666,17.3120199 L24.4098722,14.8293018 L23.6909586,17.2151205 C23.6458206,17.3643979 23.5074412,17.4668624 23.3506113,17.4668624 L22.1417689,17.4668624 C21.9958116,17.4668624 21.8930155,17.3241323 21.9401304,17.1869673 L23.2942711,13.23701 L22.0205222,11.4512469 C21.9206914,11.3111357 22.0215106,11.1173371 22.1944848,11.1173371 L23.4230957,11.1173371 C23.5394003,11.1173371 23.6484564,11.1739708 23.7150102,11.268906 L27.8051083,17.1345893 C27.9029623,17.2750279 27.8021431,17.4668624 27.6301573,17.4668624" id="Shape" fill="#FFFFFF"></path>            <path d="M37.6340286,15.1003908 C37.5157472,14.4057273 36.9609119,13.9392356 36.2528709,13.9392356 C35.8980267,13.9392356 35.6136901,14.0528304 35.4311612,14.2675803 C35.2499501,14.480366 35.1820783,14.7838311 35.2394069,15.121342 C35.3494515,15.8101129 35.913512,16.291336 36.6106803,16.291336 C36.9582761,16.291336 37.2403064,16.176759 37.4264595,15.960045 C37.6139306,15.7416941 37.6877329,15.4365922 37.6340286,15.1003908 M39.3393893,17.4668951 L38.1157205,17.4668951 C38.0109475,17.4668951 37.9216599,17.3912744 37.9051862,17.2881551 L37.8514818,16.9483527 L37.7658184,17.0714411 C37.5009208,17.4534733 36.9101728,17.581472 36.3204132,17.581472 C34.9685788,17.581472 33.8137702,16.5633743 33.5890685,15.1357459 C33.472105,14.4234049 33.6381602,13.742818 34.0447319,13.2678148 C34.4180267,12.8314405 34.9507871,12.6497542 35.5856848,12.6497542 C36.6755869,12.6497542 37.2798433,13.3450724 37.2798433,13.3450724 L37.2251505,13.0072342 C37.2047231,12.878908 37.3045539,12.7626943 37.4356848,12.7626943 L38.537448,12.7626943 C38.712399,12.7626943 38.8609921,12.8887289 38.8883385,13.0602669 L39.5499236,17.2223552 C39.570351,17.3506814 39.4701907,17.4668951 39.3393893,17.4668951" id="Shape" fill="#FFFFFF"></path>            <path d="M19.4075577,15.1003908 C19.2892763,14.4057273 18.7344411,13.9392356 18.0264001,13.9392356 C17.6715559,13.9392356 17.3872193,14.0528304 17.2046903,14.2675803 C17.0238088,14.480366 16.9556075,14.7838311 17.0129361,15.121342 C17.1229806,15.8101129 17.6870412,16.291336 18.3842095,16.291336 C18.7318053,16.291336 19.0138355,16.176759 19.1999887,15.960045 C19.3874598,15.7416941 19.4612621,15.4365922 19.4075577,15.1003908 M21.1129184,17.4668951 L19.8892496,17.4668951 C19.7844767,17.4668951 19.6951891,17.3912744 19.6787154,17.2881551 L19.625011,16.9483527 L19.5396771,17.0714411 C19.27445,17.4534733 18.683702,17.581472 18.0939424,17.581472 C16.7421079,17.581472 15.5872994,16.5633743 15.3625977,15.1357459 C15.2456342,14.4234049 15.4116894,13.742818 15.8182611,13.2678148 C16.1915558,12.8314405 16.7243163,12.6497542 17.3592139,12.6497542 C18.449116,12.6497542 19.0533725,13.3450724 19.0533725,13.3450724 L18.9986797,13.0072342 C18.9782523,12.878908 19.0780831,12.7626943 19.209214,12.7626943 L20.3109772,12.7626943 C20.4859282,12.7626943 20.6345213,12.8887289 20.6618677,13.0602669 L21.3234527,17.2223552 C21.3438802,17.3506814 21.2437199,17.4668951 21.1129184,17.4668951" id="Shape" fill="#FFFFFF"></path>            <path d="M13.7698184,17.4376944 C13.6301212,16.5263168 12.9296581,16.5263168 12.2519288,16.5263168 L11.8664435,16.5263168 L12.1369421,18.2279477 C12.1530864,18.3307396 12.242374,18.4063604 12.347147,18.4063604 L12.5240748,18.4063604 C12.9853393,18.4063604 13.4209048,18.4063604 13.6456065,18.1454523 C13.7800321,17.9893004 13.8205575,17.7575276 13.7698184,17.4376944 M13.4749386,19.8156564 L10.9195334,19.8156564 C10.7445823,19.8156564 10.5959893,19.6892944 10.5686429,19.5177564 L9.53541044,13.0071687 C9.51498302,12.8788426 9.61481383,12.7626288 9.74561526,12.7626288 L10.9659893,12.7626288 C11.1406109,12.7626288 11.2892039,12.8889908 11.3165503,13.0602015 L11.5956153,14.8168293 C11.6226322,14.9883673 11.7715548,15.1147292 11.9461763,15.1147292 L12.7547071,15.1147292 C14.437993,15.1147292 15.4096137,15.9239696 15.6633092,17.5283738 C15.7776368,18.2295845 15.6679218,18.7808632 15.3374587,19.1668237 C14.9740482,19.5910857 14.3299253,19.8156564 13.4749386,19.8156564" id="Shape" fill="#FFFFFF"></path>            <path d="M31.9962563,17.4376944 C31.8565591,16.5263168 31.156096,16.5263168 30.4783667,16.5263168 L30.0928814,16.5263168 L30.36338,18.2279477 C30.3795243,18.3307396 30.4688119,18.4063604 30.5735848,18.4063604 L30.7505127,18.4063604 C31.2117772,18.4063604 31.6473427,18.4063604 31.8720444,18.1454523 C32.00647,17.9893004 32.0469954,17.7575276 31.9962563,17.4376944 M31.7013765,19.8156564 L29.1459713,19.8156564 C28.9710202,19.8156564 28.8224272,19.6892944 28.7950808,19.5177564 L27.7618483,13.0071687 C27.7414209,12.8788426 27.8415812,12.7626288 27.9720531,12.7626288 L29.2833622,12.7626288 C29.4055973,12.7626288 29.5097113,12.8510168 29.5288208,12.9708315 L29.8220532,14.8168293 C29.8490701,14.9883673 29.9979927,15.1147292 30.1726142,15.1147292 L30.981145,15.1147292 C32.6644309,15.1147292 33.6360516,15.9239696 33.889747,17.5283738 C34.0040747,18.2295845 33.8943597,18.7808632 33.5638966,19.1668237 C33.2004861,19.5910857 32.5563632,19.8156564 31.7013765,19.8156564" id="Shape" fill="#FFFFFF"></path>        </g>    </g></symbol><symbol id="icon-card-visa"    viewBox="0 0 52 31" version="1.1" xmlns="http://www.w3.org/2000/svg" xmlns:xlink="http://www.w3.org/1999/xlink">    <g id="card-visa" stroke="none" stroke-width="1" fill="none" fill-rule="evenodd">        <g id="Visa-dark">            <rect id="Rectangle" fill="#26337A" x="0" y="0" width="52" height="31" rx="4"></rect>            <polyline id="Fill-3" fill="#FFFFFE" points="21.5747952 20.432493 23.1736586 10.5775493 25.7293843 10.5775493 24.1306671 20.432493 21.5747952 20.432493"></polyline>            <path d="M33.4010929,10.8194366 C32.8957655,10.6216479 32.1010114,10.4059577 31.1109674,10.4059577 C28.5841843,10.4059577 26.8055255,11.7433239 26.7907618,13.658338 C26.7746826,15.0748779 28.0600004,15.8648685 29.0289952,16.3356901 C30.0248863,16.8183005 30.3594811,17.1271362 30.3555344,17.558662 C30.3486641,18.2186854 29.5606341,18.5211174 28.8258118,18.5211174 C27.802586,18.5211174 27.2589607,18.37223 26.4184538,18.0043052 L26.089706,17.8474131 L25.7323078,20.0533615 C26.3282638,20.3278498 27.4330553,20.5660986 28.5796529,20.578615 C31.2650359,20.578615 33.0099283,19.2574038 33.0303928,17.2124225 C33.0396018,16.0891455 32.358572,15.2377371 30.8836651,14.5347793 C29.9905351,14.077784 29.4423784,13.775061 29.448664,13.3125352 C29.4492487,12.9029859 29.9117467,12.4644742 30.9127539,12.4644742 C31.7487294,12.4510845 32.3538944,12.6429061 32.8254553,12.843169 L33.0549502,12.9558169 L33.4010929,10.8194366" id="Fill-4" fill="#FFFFFE"></path>            <path d="M36.8041958,16.9385164 C37.0160035,16.3720751 37.8223054,14.1838826 37.8223054,14.1838826 C37.8073956,14.2099343 38.0329438,13.6130751 38.1620164,13.2436948 L38.334503,14.0936479 C38.334503,14.0936479 38.8249206,16.4458638 38.9259276,16.9385164 L36.8041958,16.9385164 L36.8041958,16.9385164 Z M39.957193,10.5875915 L37.9820748,10.5875915 C37.3694549,10.5875915 36.9109036,10.7619484 36.6425261,11.404507 L32.8470892,20.4359859 L35.531449,20.4359859 C35.531449,20.4359859 35.9693897,19.2210188 36.0687888,18.9543897 C36.3615775,18.9543897 38.9699263,18.9594836 39.3422343,18.9594836 C39.41883,19.3033944 39.6534411,20.4359859 39.6534411,20.4359859 L42.0255709,20.4359859 L39.957193,10.5875915 L39.957193,10.5875915 Z" id="Fill-5" fill="#FFFFFE"></path>            <path d="M19.4306986,10.5858451 L16.9292039,17.3045493 L16.6612649,15.9388028 C16.1951124,14.3652254 14.7440321,12.6596432 13.1209036,11.8050329 L15.4094212,20.4239061 L18.1142455,20.4223052 L22.1390312,10.5858451 L19.4306986,10.5858451" id="Fill-6" fill="#FFFFFE"></path>            <path d="M14.607066,10.5791502 L10.4856586,10.5791502 L10.451746,10.7833427 C13.6586818,11.5996761 15.7805598,13.5701408 16.6612649,15.9388028 L15.76565,11.4106197 C15.6111429,10.786108 15.1620929,10.6009812 14.607066,10.5791502" id="Fill-7" fill="#EC982D"></path>        </g>    </g></symbol><symbol id="icon-check"    viewBox="0 0 24 17" version="1.1" xmlns="http://www.w3.org/2000/svg" xmlns:xlink="http://www.w3.org/1999/xlink">    <g id="check" stroke="none" stroke-width="1" fill="none" fill-rule="evenodd">        <g id="check-mark-black-outline" fill="currentColor" fill-rule="nonzero">            <path d="M23.9016974,2.53509874 L9.02125488,16.9050696 C8.89018473,17.0316435 8.67796134,17.0316435 8.54719744,16.9050696 L0.0980729295,8.74549551 C-0.0326909765,8.61951317 -0.0326909765,8.41457008 0.0980729295,8.28799628 L2.15109688,6.30540104 C2.28216702,6.17912298 2.49439041,6.17912298 2.62515432,6.30540104 L8.7845324,12.2531867 L21.3749222,0.0947085506 C21.5062986,-0.0315695169 21.7179095,-0.0315695169 21.8489797,0.0947085506 L23.9016974,2.07730378 C24.0327675,2.20358185 24.0327675,2.40822921 23.9016974,2.53509874 Z" id="Path"></path>        </g>    </g></symbol><symbol id="icon-close"  fill="none" viewBox="0 0 24 24" stroke="currentColor">	<path stroke-linecap="round" stroke-linejoin="round" stroke-width="2"		d="M6 18L18 6M6 6l12 12" /></symbol><symbol id="icon-dribbble"  fill="currentColor" viewBox="0 0 24 24">	<path fill-rule="evenodd" d="M12 2C6.48 2 2 6.48 2 12s4.48 10 10 10c5.51 0 10-4.48 10-10S17.51 2 12 2zm6.605 4.61a8.502 8.502 0 011.93 5.314c-.281-.054-3.101-.629-5.943-.271-.065-.141-.12-.293-.184-.445a25.416 25.416 0 00-.564-1.236c3.145-1.28 4.577-3.124 4.761-3.362zM12 3.475c2.17 0 4.154.813 5.662 2.148-.152.216-1.443 1.941-4.48 3.08-1.399-2.57-2.95-4.675-3.189-5A8.687 8.687 0 0112 3.475zm-3.633.803a53.896 53.896 0 013.167 4.935c-3.992 1.063-7.517 1.04-7.896 1.04a8.581 8.581 0 014.729-5.975zM3.453 12.01v-.26c.37.01 4.512.065 8.775-1.215.25.477.477.965.694 1.453-.109.033-.228.065-.336.098-4.404 1.42-6.747 5.303-6.942 5.629a8.522 8.522 0 01-2.19-5.705zM12 20.547a8.482 8.482 0 01-5.239-1.8c.152-.315 1.888-3.656 6.703-5.337.022-.01.033-.01.054-.022a35.318 35.318 0 011.823 6.475 8.4 8.4 0 01-3.341.684zm4.761-1.465c-.086-.52-.542-3.015-1.659-6.084 2.679-.423 5.022.271 5.314.369a8.468 8.468 0 01-3.655 5.715z" clip-rule="evenodd" /></symbol><symbol id="icon-github"  fill="currentColor" viewBox="0 0 24 24">	<path fill-rule="evenodd" d="M12 2C6.477 2 2 6.484 2 12.017c0 4.425 2.865 8.18 6.839 9.504.5.092.682-.217.682-.483 0-.237-.008-.868-.013-1.703-2.782.605-3.369-1.343-3.369-1.343-.454-1.158-1.11-1.466-1.11-1.466-.908-.62.069-.608.069-.608 1.003.07 1.531 1.032 1.531 1.032.892 1.53 2.341 1.088 2.91.832.092-.647.35-1.088.636-1.338-2.22-.253-4.555-1.113-4.555-4.951 0-1.093.39-1.988 1.029-2.688-.103-.253-.446-1.272.098-2.65 0 0 .84-.27 2.75 1.026A9.564 9.564 0 0112 6.844c.85.004 1.705.115 2.504.337 1.909-1.296 2.747-1.027 2.747-1.027.546 1.379.202 2.398.1 2.651.64.7 1.028 1.595 1.028 2.688 0 3.848-2.339 4.695-4.566 4.943.359.309.678.92.678 1.855 0 1.338-.012 2.419-.012 2.747 0 .268.18.58.688.482A10.019 10.019 0 0022 12.017C22 6.484 17.522 2 12 2z" clip-rule="evenodd" /></symbol><symbol id="icon-instagram"  fill="currentColor" viewBox="0 0 24 24" aria-hidden="true">	<path fill-rule="evenodd" d="M12.315 2c2.43 0 2.784.013 3.808.06 1.064.049 1.791.218 2.427.465a4.902 4.902 0 011.772 1.153 4.902 4.902 0 011.153 1.772c.247.636.416 1.363.465 2.427.048 1.067.06 1.407.06 4.123v.08c0 2.643-.012 2.987-.06 4.043-.049 1.064-.218 1.791-.465 2.427a4.902 4.902 0 01-1.153 1.772 4.902 4.902 0 01-1.772 1.153c-.636.247-1.363.416-2.427.465-1.067.048-1.407.06-4.123.06h-.08c-2.643 0-2.987-.012-4.043-.06-1.064-.049-1.791-.218-2.427-.465a4.902 4.902 0 01-1.772-1.153 4.902 4.902 0 01-1.153-1.772c-.247-.636-.416-1.363-.465-2.427-.047-1.024-.06-1.379-.06-3.808v-.63c0-2.43.013-2.784.06-3.808.049-1.064.218-1.791.465-2.427a4.902 4.902 0 011.153-1.772A4.902 4.902 0 015.45 2.525c.636-.247 1.363-.416 2.427-.465C8.901 2.013 9.256 2 11.685 2h.63zm-.081 1.802h-.468c-2.456 0-2.784.011-3.807.058-.975.045-1.504.207-1.857.344-.467.182-.8.398-1.15.748-.35.35-.566.683-.748 1.15-.137.353-.3.882-.344 1.857-.047 1.023-.058 1.351-.058 3.807v.468c0 2.456.011 2.784.058 3.807.045.975.207 1.504.344 1.857.182.466.399.8.748 1.15.35.35.683.566 1.15.748.353.137.882.3 1.857.344 1.054.048 1.37.058 4.041.058h.08c2.597 0 2.917-.01 3.96-.058.976-.045 1.505-.207 1.858-.344.466-.182.8-.398 1.15-.748.35-.35.566-.683.748-1.15.137-.353.3-.882.344-1.857.048-1.055.058-1.37.058-4.041v-.08c0-2.597-.01-2.917-.058-3.96-.045-.976-.207-1.505-.344-1.858a3.097 3.097 0 00-.748-1.15 3.098 3.098 0 00-1.15-.748c-.353-.137-.882-.3-1.857-.344-1.023-.047-1.351-.058-3.807-.058zM12 6.865a5.135 5.135 0 110 10.27 5.135 5.135 0 010-10.27zm0 1.802a3.333 3.333 0 100 6.666 3.333 3.333 0 000-6.666zm5.338-3.205a1.2 1.2 0 110 2.4 1.2 1.2 0 010-2.4z" clip-rule="evenodd" /></symbol><symbol id="icon-logo"    viewBox="0 0 210 48" version="1.1" xmlns="http://www.w3.org/2000/svg" xmlns:xlink="http://www.w3.org/1999/xlink">    <title>Group 2</title>    <g id="Page-1" stroke="none" stroke-width="1" fill="none" fill-rule="evenodd">        <g id="Stock" transform="translate(-239.000000, -22.000000)">            <g id="Group-2" transform="translate(239.000000, 22.905126)">                <g id="StaticStarter" transform="translate(43.000000, 10.094874)" fill="currentColor" fill-rule="nonzero">                    <path d="M0,16.4818418 C0.134968965,20.5389105 3.5691793,23 8.72799308,23 C14.1417482,23 17.4559862,20.3300908 17.4559862,16.1238651 C17.4559862,12.8573281 15.4614448,11.0226978 10.8874965,10.1128405 L8.59302412,9.65045396 C6.04361033,9.14332036 4.99385171,8.3229572 4.99385171,6.99546044 C4.99385171,5.41439689 6.49350688,4.37029831 8.72799308,4.37029831 C11.0074689,4.37029831 12.6121,5.47405966 12.7620655,7.30869001 L17.0360827,7.30869001 C16.9611,3.35603113 13.781831,0.730869001 8.72799308,0.730869001 C3.91409999,0.730869001 0.464893102,3.34111543 0.464893102,7.27885863 C0.464893102,10.4857328 2.57940689,12.5440986 6.89841378,13.3942931 L9.17788963,13.8417639 C11.8922655,14.3936446 12.912031,15.1990921 12.912031,16.616083 C12.912031,18.1971466 11.2624103,19.3605707 8.8479655,19.3605707 C6.38853102,19.3605707 4.55895171,18.2866407 4.27401723,16.4818418 L0,16.4818418 Z" id="Path"></path>                    <path d="M21.0400287,2.95330739 L21.0400287,6.63748379 L18.7755494,6.63748379 L18.7755494,9.91893645 L21.0400287,9.91893645 L21.0400287,18.3164721 C21.0400287,21.4338521 22.5096908,22.6867704 26.2888218,22.6867704 C27.1736184,22.6867704 27.9234459,22.612192 28.3733425,22.5077821 L28.3733425,19.3009079 C28.1034046,19.345655 27.6984977,19.3754864 27.3085873,19.3754864 C26.0188839,19.3754864 25.4190218,18.7937743 25.4190218,17.5706874 L25.4190218,9.91893645 L28.388339,9.91893645 L28.388339,6.63748379 L25.4190218,6.63748379 L25.4190218,2.95330739 L21.0400287,2.95330739 Z" id="Path"></path>                    <path d="M36.876254,19.733463 C35.3915954,19.733463 34.401823,18.9876783 34.401823,17.7944228 C34.401823,16.6608301 35.3316092,15.9299611 36.9662333,15.8106355 L40.355454,15.6018158 L40.355454,16.7652399 C40.355454,18.4954604 38.7808161,19.733463 36.876254,19.733463 Z M35.436585,22.8806744 C37.446123,22.8806744 39.4406643,21.881323 40.3404574,20.1809339 L40.4304368,20.1809339 L40.4304368,22.6271077 L44.6594643,22.6271077 L44.6594643,11.6342412 C44.6594643,8.41245136 41.9750816,6.29442283 37.8510299,6.29442283 C33.5920092,6.29442283 30.9376195,8.42736706 30.7726575,11.5298314 L34.7767368,11.5298314 C34.9866885,10.3514916 36.0214506,9.5460441 37.6560747,9.5460441 C39.3056954,9.5460441 40.355454,10.4111543 40.355454,11.9027237 L40.355454,12.961738 L36.306385,13.2003891 C32.3023057,13.4390402 30.052823,15.1245136 30.052823,18.0330739 C30.052823,20.9118029 32.3772885,22.8806744 35.436585,22.8806744 Z" id="Shape"></path>                    <path d="M48.6784069,2.95330739 L48.6784069,6.63748379 L46.4139276,6.63748379 L46.4139276,9.91893645 L48.6784069,9.91893645 L48.6784069,18.3164721 C48.6784069,21.4338521 50.1480689,22.6867704 53.9272,22.6867704 C54.8119965,22.6867704 55.5618241,22.612192 56.0117207,22.5077821 L56.0117207,19.3009079 C55.7417827,19.345655 55.3368758,19.3754864 54.9469655,19.3754864 C53.657262,19.3754864 53.0574,18.7937743 53.0574,17.5706874 L53.0574,9.91893645 L56.0267172,9.91893645 L56.0267172,6.63748379 L53.0574,6.63748379 L53.0574,2.95330739 L48.6784069,2.95330739 Z" id="Path"></path>                    <path d="M58.531008,22.6271077 L62.9100011,22.6271077 L62.9100011,6.63748379 L58.531008,6.63748379 L58.531008,22.6271077 Z M60.705508,4.47470817 C61.9802149,4.47470817 62.9849839,3.46044099 62.9849839,2.23735409 C62.9849839,0.999351492 61.9802149,0 60.705508,0 C59.4308011,0 58.4260322,0.999351492 58.4260322,2.23735409 C58.4260322,3.46044099 59.4308011,4.47470817 60.705508,4.47470817 Z" id="Shape"></path>                    <path d="M80.4558333,12.5888457 C80.2608781,8.96433204 77.5015126,6.29442283 73.1525126,6.29442283 C68.3386195,6.29442283 65.2643264,9.48638132 65.2643264,14.61738 C65.2643264,19.8378729 68.3386195,22.9701686 73.1825057,22.9701686 C77.4115333,22.9701686 80.2458816,20.5389105 80.4708299,16.7652399 L76.3917678,16.7652399 C76.1218299,18.5103761 74.9820919,19.5544747 73.2274954,19.5544747 C71.0529954,19.5544747 69.7033057,17.7645914 69.7033057,14.61738 C69.7033057,11.5298314 71.0529954,9.71011673 73.2124988,9.71011673 C75.012085,9.71011673 76.1368264,10.9033722 76.3917678,12.5888457 L80.4558333,12.5888457 Z" id="Path"></path>                    <path d="M82.2402897,16.8547341 C82.495231,20.5687419 85.6445069,22.9850843 90.3684207,22.9850843 C95.2123069,22.9850843 98.3615827,20.4941634 98.3615827,16.5116732 C98.3615827,13.4688716 96.5769931,11.6789883 92.063031,10.6945525 L89.6635827,10.1725032 C86.7092621,9.5311284 85.5545276,8.36770428 85.5545276,6.66731518 C85.5545276,4.47470817 87.6390483,3.16212711 90.3384276,3.16212711 C93.1577793,3.16212711 95.0323483,4.60894942 95.2722931,6.96562905 L97.9716724,6.96562905 C97.8517,3.31128405 94.7324172,0.745784695 90.4134103,0.745784695 C85.9294414,0.745784695 82.7801655,3.23670558 82.7801655,6.78664073 C82.7801655,9.84435798 84.6547345,11.7983139 88.9887379,12.7380026 L91.3881862,13.2600519 C94.3874965,13.9163424 95.5872207,15.1095979 95.5872207,16.9143969 C95.5872207,19.0324254 93.4577103,20.5687419 90.5183862,20.5687419 C87.4141,20.5687419 85.2545965,19.1666667 84.939669,16.8547341 L82.2402897,16.8547341 Z" id="Path"></path>                    <path d="M101.975618,3.37094682 L101.975618,7.11478599 L99.6511529,7.11478599 L99.6511529,9.24773022 L101.975618,9.24773022 L101.975618,18.5998703 C101.975618,21.5830091 103.085363,22.7464332 105.949705,22.7464332 C106.564563,22.7464332 107.284398,22.7016861 107.599325,22.6271077 L107.599325,20.4494163 C107.419367,20.4792477 106.819505,20.5239948 106.519574,20.5239948 C105.18488,20.5239948 104.585018,19.88262 104.585018,18.4656291 L104.585018,9.24773022 L107.614322,9.24773022 L107.614322,7.11478599 L104.585018,7.11478599 L104.585018,3.37094682 L101.975618,3.37094682 Z" id="Path"></path>                    <path d="M115.26243,20.6880674 C113.387861,20.6880674 112.143147,19.7185473 112.143147,18.2418936 C112.143147,16.7801556 113.342871,15.8553826 115.442388,15.7211414 L119.61143,15.4675746 L119.61143,16.7354086 C119.61143,18.9727626 117.721864,20.6880674 115.26243,20.6880674 Z M114.677564,22.8955901 C116.777082,22.8955901 118.756626,21.732166 119.686413,19.9571984 L119.746399,19.9571984 L119.746399,22.6271077 L122.22083,22.6271077 L122.22083,11.9027237 C122.22083,8.8151751 119.911361,6.8463035 116.252202,6.8463035 C112.563051,6.8463035 110.253582,8.90466926 110.073623,11.5894942 L112.593044,11.5894942 C112.922968,10.0680934 114.182678,9.12840467 116.192216,9.12840467 C118.35172,9.12840467 119.61143,10.2619974 119.61143,12.1562905 L119.61143,13.4539559 L115.142457,13.7075227 C111.543285,13.9163424 109.488757,15.5869001 109.488757,18.2418936 C109.488757,21.0311284 111.573278,22.8955901 114.677564,22.8955901 Z" id="Shape"></path>                    <path d="M125.564928,22.6271077 L128.174328,22.6271077 L128.174328,12.961738 C128.174328,10.769131 129.494024,9.32230869 131.518559,9.32230869 C132.148414,9.32230869 132.703286,9.39688716 132.913238,9.47146563 L132.913238,6.95071336 C132.703286,6.92088197 132.313376,6.8463035 131.863479,6.8463035 C130.0339,6.8463035 128.594231,7.93514916 128.084348,9.65045396 L128.024362,9.65045396 L128.024362,7.11478599 L125.564928,7.11478599 L125.564928,22.6271077 Z" id="Path"></path>                    <path d="M135.897418,3.37094682 L135.897418,7.11478599 L133.572953,7.11478599 L133.572953,9.24773022 L135.897418,9.24773022 L135.897418,18.5998703 C135.897418,21.5830091 137.007163,22.7464332 139.871505,22.7464332 C140.486363,22.7464332 141.206198,22.7016861 141.521125,22.6271077 L141.521125,20.4494163 C141.341167,20.4792477 140.741305,20.5239948 140.441374,20.5239948 C139.10668,20.5239948 138.506818,19.88262 138.506818,18.4656291 L138.506818,9.24773022 L141.536122,9.24773022 L141.536122,7.11478599 L138.506818,7.11478599 L138.506818,3.37094682 L135.897418,3.37094682 Z" id="Path"></path>                    <path d="M150.144009,9.09857328 C152.603444,9.09857328 154.238068,10.9481193 154.298054,13.5434501 L145.825002,13.5434501 C145.989964,10.963035 147.699571,9.09857328 150.144009,9.09857328 Z M154.238068,18.1822309 C153.803168,19.6439689 152.348502,20.6433204 150.368957,20.6433204 C147.564602,20.6433204 145.810006,18.6893645 145.810006,15.7211414 L145.810006,15.5719844 L156.997433,15.5719844 L156.997433,14.5875486 C156.997433,9.88910506 154.40303,6.8463035 150.188999,6.8463035 C145.884989,6.8463035 143.125623,10.1128405 143.125623,14.9306096 C143.125623,19.8080415 145.839999,22.8955901 150.308971,22.8955901 C153.713189,22.8955901 156.352582,20.8968872 156.802478,18.1822309 L154.238068,18.1822309 Z" id="Shape"></path>                    <path d="M159.65169,22.6271077 L162.26109,22.6271077 L162.26109,12.961738 C162.26109,10.769131 163.580786,9.32230869 165.605321,9.32230869 C166.235176,9.32230869 166.790048,9.39688716 167,9.47146563 L167,6.95071336 C166.790048,6.92088197 166.400138,6.8463035 165.950241,6.8463035 C164.120662,6.8463035 162.680993,7.93514916 162.17111,9.65045396 L162.111124,9.65045396 L162.111124,7.11478599 L159.65169,7.11478599 L159.65169,22.6271077 Z" id="Path"></path>                </g>                <g id="Group">                    <path d="M10.3503182,32.0212709 L26.9110729,32.0847795 C29.1033868,32.0931867 30.878531,33.8683098 30.8869644,36.0606236 C30.8953145,38.2312945 29.1424072,39.9977401 26.9717363,40.0060902 C26.9616724,40.0061289 26.9516084,40.006129 26.9415446,40.0060904 L10.3807899,39.9425819 C8.18847598,39.9341746 6.41333179,38.1590516 6.40489839,35.9667378 C6.39654825,33.7960668 8.14945559,32.0296212 10.3201265,32.0212711 C10.3301904,32.0212324 10.3402543,32.0212323 10.3503182,32.0212709 Z" id="Rectangle" fill="#E11D48" transform="translate(18.645931, 36.013681) rotate(-34.000000) translate(-18.645931, -36.013681) "></path>                    <path d="M15.3024588,19.2092317 L31.8632135,19.2727402 C34.0555274,19.2811475 35.8306716,21.0562705 35.839105,23.2485843 C35.8474552,25.4192553 34.0945478,27.1857009 31.9238769,27.194051 C31.9138131,27.1940897 31.9037491,27.1940898 31.8936852,27.1940512 L15.3329306,27.1305426 C13.1406166,27.1221354 11.3654724,25.3470123 11.357039,23.1546985 C11.3486889,20.9840276 13.1015962,19.217582 15.2722672,19.2092319 C15.282331,19.2091932 15.292395,19.2091931 15.3024588,19.2092317 Z" id="Rectangle" fill="#FBBF24" transform="translate(23.598072, 23.201641) rotate(-34.000000) translate(-23.598072, -23.201641) "></path>                    <path d="M4.10631477,17.2874258 L20.6670694,17.3509343 C22.8593834,17.3593416 24.6345276,19.1344646 24.642961,21.3267785 C24.6513111,23.4974494 22.8984038,25.263895 20.7277328,25.2722451 C20.717669,25.2722838 20.707605,25.2722839 20.6975412,25.2722453 L4.13678648,25.2087368 C1.94447255,25.2003295 0.169328358,23.4252065 0.160894961,21.2328926 C0.15254482,19.0622217 1.90545216,17.2957761 4.07612308,17.287426 C4.08618694,17.2873873 4.09625091,17.2873872 4.10631477,17.2874258 Z" id="Rectangle" fill="#9333EA" transform="translate(12.401928, 21.279836) rotate(-34.000000) translate(-12.401928, -21.279836) "></path>                    <path d="M6.47472986,6.18365846 L23.0354845,6.24716699 C25.2277985,6.25557426 27.0029427,8.03069729 27.0113761,10.2230111 C27.0197262,12.393682 25.2668189,14.1601276 23.0961479,14.1684778 C23.0860841,14.1685165 23.0760201,14.1685165 23.0659563,14.168478 L6.50520157,14.1049694 C4.31288764,14.0965622 2.53774345,12.3214391 2.52931005,10.1291253 C2.52095991,7.95845437 4.27386725,6.19200878 6.44453817,6.18365864 C6.45460203,6.18361993 6.464666,6.18361987 6.47472986,6.18365846 Z" id="Rectangle" fill="#10B981" transform="translate(14.770343, 10.176068) rotate(-34.000000) translate(-14.770343, -10.176068) "></path>                </g>            </g>        </g>    </g></symbol><symbol id="icon-menu"  fill="none" viewBox="0 0 24 24" stroke="currentColor">	<path stroke-linecap="round" stroke-linejoin="round" stroke-width="2"		d="M4 6h16M4 12h16M4 18h16" /></symbol><symbol id="icon-twitter"  xmlns="http://www.w3.org/2000/svg"   viewBox="0 0 24 24"><path fill="currentColor" d="M24 4.557c-.883.392-1.832.656-2.828.775 1.017-.609 1.798-1.574 2.165-2.724-.951.564-2.005.974-3.127 1.195-.897-.957-2.178-1.555-3.594-1.555-3.179 0-5.515 2.966-4.797 6.045-4.091-.205-7.719-2.165-10.148-5.144-1.29 2.213-.669 5.108 1.523 6.574-.806-.026-1.566-.247-2.229-.616-.054 2.281 1.581 4.415 3.949 4.89-.693.188-1.452.232-2.224.084.626 1.956 2.444 3.379 4.6 3.419-2.07 1.623-4.678 2.348-7.29 2.04 2.179 1.397 4.768 2.212 7.548 2.212 9.142 0 14.307-7.721 13.995-14.646.962-.695 1.797-1.562 2.457-2.549z"/></symbol></svg>